# xmcd CD database file
#
# Track frame offsets:
#	150
#	25519
#	40652
#	66043
#
# Disc length: 1082 seconds
#
# Revision: 0
# Processed by: cddbd v1.5.1PL0 Copyright (c) Steve Scherf et al.
# Submitted via: CDex 1.51
#
DISCID=24043804
DTITLE=SOPHIA - ANSWER -イチバンタダシイコタエ-
DYEAR=2005
DGENRE=Rock
TTITLE0=ANSWER -イチバンタダシイコタエ-
TTITLE1=アウト
TTITLE2=ANSWER -イチバンタダシイコタエ- (Instrumental)
TTITLE3=アウト (Instrumental)
EXTD=YEAR: 2005
EXTT0=
EXTT1=
EXTT2=
EXTT3=
PLAYORDER=
